<?xml version="1.0" encoding="utf-8"?>
<!-- Generator: Adobe Illustrator 26.0.2, SVG Export Plug-In . SVG Version: 6.00 Build 0)  -->
<svg version="1.1" id="Livello_1" xmlns="http://www.w3.org/2000/svg" xmlns:xlink="http://www.w3.org/1999/xlink" x="0px" y="0px"
	 viewBox="0 0 193 35.6" style="enable-background:new 0 0 193 35.6;" xml:space="preserve">
<style type="text/css">
	.st0{fill:#FFFFFF;}
	.st1{fill:#016DB3;}
	.st2{enable-background:new    ;}
	.st3{fill:none;stroke:#FFFFFF;stroke-miterlimit:10;}
</style>
<g id="Livello_2_00000026843057015926594670000009991932l517987461053_">
	<g id="Livello_1-2">
		<g id="Raggruppa_7167">
			<g id="Raggruppa_7706">
				<path id="Tracciato_59942" class="st0" d="M0,0v19h81V8.8c0,0,0-8.8-8.9-8.8H0z"/>
				<path id="Tracciato_59944" class="st1" d="M73.2,13.2c0.1,0,0.3,0,0.4-0.1c0.1,0,0.2-0.1,0.3-0.2c0.1-0.1,0.1-0.3,0.1-0.4
					c0-0.2,0-0.5,0-0.7c0-0.9-0.1-1.7-0.4-2.5c-0.3-0.7-0.7-1.3-1.2-1.9c-0.5-0.5-1.2-0.9-1.8-1.2c-1.6-0.6-3.4-0.5-5.1,0.1
					c-1.5,0.6-2.7,1.9-3.3,3.5c-0.3,0.8-0.4,1.6-0.5,2.5c0,1,0.2,2.1,0.5,3.1c0.3,0.8,0.8,1.6,1.4,2.2c0.6,0.6,1.3,1,2.1,1.3
					c0.8,0.3,1.7,0.5,2.6,0.5c0.5,0,0.9,0,1.4-0.1c0.5-0.1,1-0.2,1.5-0.3c0.5-0.2,1-0.4,1.4-0.7c0.5-0.3,0.9-0.7,1.2-1.1l-1.1-1.4
					c-0.2-0.2-0.4-0.3-0.7-0.3c-0.2,0-0.5,0.1-0.7,0.2l-0.7,0.4c-0.3,0.1-0.6,0.3-0.9,0.4c-0.4,0.1-0.8,0.2-1.2,0.2
					c-0.8,0-1.5-0.2-2.1-0.7c-0.6-0.6-1-1.5-1-2.4L73.2,13.2z M65.8,10.9c0.1-0.7,0.4-1.3,0.8-1.8c0.5-0.4,1.1-0.7,1.7-0.6
					c0.4,0,0.7,0.1,1.1,0.2c0.3,0.1,0.5,0.3,0.7,0.6c0.2,0.2,0.3,0.5,0.4,0.8c0.1,0.3,0.1,0.6,0.1,0.9L65.8,10.9z M59.6,18.9
					c0.6-0.2,1.2-0.5,1.7-0.9l-1.2-1.9C60,16.1,60,16,59.9,16c-0.1-0.1-0.2-0.1-0.3-0.1c-0.1,0-0.1,0-0.2,0L59.2,16l-0.3,0.1
					c-0.1,0-0.2,0-0.4,0c-0.2,0-0.5-0.1-0.6-0.3c-0.2-0.2-0.2-0.5-0.2-0.8V8.6h3.2V6h-3.2V2.2h-2c-0.4-0.1-0.8,0.2-0.8,0.6L54,6
					l-2,0.3v1.5c0,0.4,0.3,0.7,0.6,0.8h1.2v6.8c0,0.5,0,1.1,0.2,1.6c0.3,0.9,1.1,1.7,2,2c0.5,0.2,1.1,0.3,1.7,0.3
					C58.3,19.3,59,19.2,59.6,18.9 M46.4,6v9.3c-0.3,0.3-0.7,0.5-1.1,0.7c-0.4,0.2-0.8,0.3-1.2,0.3c-0.5,0-1-0.2-1.3-0.5
					c-0.3-0.4-0.5-1-0.4-1.5V6h-3.9v8.3c0,0.7,0.1,1.4,0.3,2c0.2,0.6,0.5,1.1,0.9,1.6c0.4,0.4,0.9,0.8,1.4,1
					c0.6,0.3,1.2,0.4,1.9,0.4c0.4,0,0.8,0,1.2-0.1c0.3-0.1,0.7-0.2,1-0.3c0.3-0.1,0.6-0.3,0.9-0.5c0.3-0.2,0.5-0.4,0.8-0.7l0.2,0.8
					c0.1,0.4,0.6,0.7,1,0.7h2.4V6H46.4z M32,19h3.9V0.2H32V19z M19.4,9c0.1,0.2,0.3,0.4,0.5,0.5c0.2,0.1,0.4,0.2,0.7,0.2
					c0.3,0,0.5,0,0.8-0.1L22,9.2c0.3-0.1,0.5-0.3,0.8-0.3c0.4-0.1,0.7-0.2,1.1-0.1c0.5,0,1,0.2,1.3,0.5c0.4,0.5,0.5,1.1,0.5,1.7v0.6
					c-1.3,0-2.5,0.2-3.7,0.4c-0.8,0.2-1.6,0.5-2.3,1c-0.5,0.3-0.9,0.8-1.2,1.3c-0.2,0.4-0.4,0.9-0.4,1.4c0,0.5,0.1,1.1,0.3,1.5
					c0.2,0.4,0.4,0.8,0.8,1.1c0.4,0.3,0.8,0.5,1.2,0.7c0.5,0.2,1.1,0.3,1.6,0.2c0.4,0,0.8,0,1.2-0.1c0.3-0.1,0.7-0.2,1-0.3
					c0.3-0.2,0.6-0.3,0.9-0.5c0.3-0.2,0.6-0.5,0.9-0.7l0.3,0.7c0.1,0.3,0.2,0.5,0.5,0.6c0.3,0.1,0.6,0.2,0.8,0.1h1.8v-8.2
					c0-0.7-0.1-1.4-0.4-2.1c-0.2-0.6-0.6-1.2-1-1.6c-0.5-0.5-1-0.8-1.6-1.1c-0.7-0.3-1.4-0.4-2.1-0.4c-1.1,0-2.1,0.2-3.1,0.5
					c-1,0.3-1.9,0.9-2.6,1.6L19.4,9z M25.7,15.5c-0.3,0.4-0.7,0.6-1.1,0.9c-0.4,0.2-0.9,0.3-1.3,0.3c-0.4,0-0.8-0.1-1.1-0.3
					c-0.3-0.2-0.4-0.6-0.4-0.9c0-0.2,0.1-0.4,0.2-0.6c0.1-0.2,0.4-0.4,0.6-0.5c0.4-0.2,0.8-0.3,1.2-0.4c0.6-0.1,1.3-0.2,1.9-0.2
					L25.7,15.5z M16.9,7.4c-0.3-0.3-0.5-0.5-0.8-0.7c-0.3-0.2-0.7-0.4-1.1-0.5c-0.4-0.2-0.8-0.3-1.2-0.3c-0.4-0.1-0.9-0.1-1.4-0.1
					c-0.8,0-1.5,0.1-2.3,0.3C9.5,6.3,9,6.6,8.6,7c-0.4,0.4-0.8,0.8-1,1.3c-0.4,1-0.4,2.1-0.1,3.1c0.2,0.4,0.4,0.8,0.7,1.1
					c0.3,0.3,0.6,0.5,1,0.7c0.4,0.2,0.7,0.3,1.1,0.5c0.4,0.1,0.7,0.3,1.1,0.4c0.3,0.1,0.7,0.2,1,0.3c0.3,0.1,0.5,0.2,0.7,0.4
					c0.2,0.2,0.3,0.4,0.3,0.6c0,0.3-0.1,0.6-0.4,0.8c-0.1,0.1-0.3,0.2-0.5,0.3c-0.3,0.1-0.5,0.1-0.8,0.1c-0.4,0-0.7,0-1.1-0.1
					c-0.3-0.1-0.5-0.2-0.7-0.3l-0.6-0.3c-0.4-0.2-0.8-0.2-1.2,0C8,15.9,7.9,16,7.8,16.2l-0.9,1.4c0.3,0.2,0.6,0.5,0.9,0.6
					c0.4,0.2,0.8,0.4,1.1,0.5c0.4,0.1,0.9,0.3,1.3,0.3c0.4,0.1,0.9,0.1,1.3,0.1c0.8,0,1.6-0.1,2.4-0.3c0.6-0.2,1.2-0.5,1.7-0.9
					c0.5-0.4,0.8-0.9,1.1-1.4c0.2-0.6,0.3-1.2,0.3-1.8c0-0.5-0.1-0.9-0.3-1.4c-0.2-0.4-0.4-0.7-0.7-1c-0.3-0.3-0.6-0.5-1-0.7
					c-0.4-0.2-0.7-0.3-1.1-0.5l-1-0.3c-0.3-0.1-0.7-0.2-1-0.4c-0.2-0.1-0.5-0.2-0.7-0.4C11,10.1,11,9.8,11,9.6
					c0-0.3,0.1-0.6,0.4-0.8c0.3-0.2,0.7-0.3,1.1-0.3c0.3,0,0.6,0,0.9,0.1c0.2,0.1,0.5,0.2,0.7,0.3l0.6,0.3c0.2,0.1,0.4,0.1,0.6,0.1
					c0.1,0,0.3,0,0.4-0.1C15.9,9.1,16,9,16.1,8.8L16.9,7.4z"/>
				<path id="Tracciato_59943" class="st0" d="M191.8,13.3c0.1,0,0.3,0,0.4-0.1c0.1,0,0.2-0.1,0.3-0.2c0.1-0.1,0.1-0.3,0.1-0.4
					c0-0.2,0-0.5,0-0.7c0-0.9-0.1-1.7-0.4-2.5c-0.3-0.7-0.7-1.3-1.2-1.9c-0.5-0.5-1.2-0.9-1.9-1.2c-1.6-0.6-3.4-0.5-5,0.1
					c-1.5,0.6-2.7,1.9-3.3,3.4c-0.3,0.8-0.5,1.6-0.4,2.5c0,1,0.2,2,0.5,3c0.3,0.8,0.8,1.6,1.4,2.2c0.6,0.6,1.3,1,2.1,1.3
					c0.8,0.3,1.7,0.5,2.6,0.5c0.5,0,0.9,0,1.4-0.1c0.5-0.1,1-0.2,1.5-0.3c0.5-0.2,1-0.4,1.4-0.7c0.5-0.3,0.9-0.7,1.3-1.1l-1.1-1.4
					c-0.2-0.2-0.4-0.3-0.7-0.3c-0.2,0-0.5,0.1-0.7,0.2l-0.7,0.4c-0.3,0.1-0.6,0.3-0.9,0.4c-0.4,0.1-0.8,0.2-1.2,0.2
					c-0.8,0-1.5-0.2-2.1-0.7c-0.6-0.6-1-1.5-1-2.4L191.8,13.3z M184.3,11.1c0.1-0.7,0.4-1.3,0.8-1.8c0.5-0.4,1.1-0.7,1.7-0.6
					c0.4,0,0.7,0.1,1.1,0.2c0.5,0.3,0.9,0.8,1.1,1.4c0.1,0.3,0.1,0.6,0.1,0.9H184.3z M178.1,19c0.6-0.2,1.2-0.5,1.7-0.9l-1.2-1.8
					c-0.1-0.1-0.1-0.2-0.2-0.3c-0.2-0.1-0.3-0.1-0.5,0l-0.2,0.1c-0.1,0-0.2,0.1-0.2,0.1c-0.1,0-0.2,0-0.4,0c-0.2,0-0.5-0.1-0.6-0.3
					c-0.2-0.2-0.2-0.5-0.2-0.8V8.8h3.2V6.1h-3.2V2.3h-2c-0.4,0-0.8,0.2-0.9,0.6l-0.8,3.2l-2.1,0.4V8c0,0.4,0.2,0.7,0.6,0.8h1.2v6.7
					c0,0.5,0.1,1.1,0.2,1.6c0.3,0.9,1,1.7,1.9,2c0.5,0.2,1.1,0.3,1.6,0.3C176.8,19.3,177.5,19.3,178.1,19 M160.7,6.8
					c-0.1-0.4-0.6-0.7-1-0.7h-2.4v13h3.9V9.8c0.3-0.3,0.7-0.5,1.1-0.7c0.4-0.2,0.8-0.3,1.2-0.3c0.5,0,1,0.2,1.3,0.5
					c0.3,0.4,0.5,1,0.4,1.5v8.3h3.9v-8.3c0-0.7-0.1-1.4-0.3-2c-0.2-0.6-0.5-1.1-0.9-1.6c-0.4-0.4-0.9-0.8-1.4-1
					c-0.6-0.3-1.2-0.4-1.9-0.4c-0.4,0-0.8,0-1.1,0.1c-0.3,0.1-0.7,0.2-1,0.3c-0.3,0.1-0.6,0.3-0.9,0.5c-0.3,0.2-0.5,0.4-0.8,0.7
					L160.7,6.8z M146.7,15.5c-0.9-1.8-0.9-3.9,0-5.8c0.5-0.6,1.2-1,2-0.9c0.8-0.1,1.6,0.3,2,0.9c0.9,1.8,0.9,3.9,0,5.8
					c-0.4,0.7-1.2,1.1-2,1C147.9,16.5,147.2,16.2,146.7,15.5 M146,6.4c-0.8,0.3-1.5,0.7-2,1.3c-0.6,0.6-1.1,1.3-1.4,2.1
					c-0.3,0.9-0.5,1.8-0.5,2.8c0,1,0.1,1.9,0.5,2.8c0.6,1.6,1.9,2.9,3.5,3.5c1.8,0.6,3.7,0.6,5.4,0c0.8-0.3,1.5-0.8,2.1-1.4
					c0.6-0.6,1.1-1.3,1.4-2.1c0.3-0.9,0.5-1.9,0.5-2.8c0-0.9-0.2-1.9-0.5-2.8c-0.3-0.8-0.8-1.5-1.4-2.1c-0.6-0.6-1.3-1-2.1-1.3
					C149.8,5.7,147.9,5.7,146,6.4 M125.3,19.1V9.7c0.3-0.3,0.6-0.5,0.9-0.6c0.3-0.2,0.7-0.2,1-0.2c0.5,0,0.9,0.1,1.3,0.4
					c0.3,0.5,0.5,1,0.4,1.6v8.3h3.9v-8.3c0-0.6,0.1-1.1,0.5-1.5c0.3-0.3,0.8-0.5,1.3-0.5c1.2,0,1.7,0.7,1.7,2v8.3h3.9v-8.3
					c0-0.7-0.1-1.4-0.3-2.1c-0.2-0.6-0.5-1.1-0.9-1.6c-0.4-0.4-0.9-0.8-1.5-1c-0.6-0.2-1.3-0.3-2-0.3c-0.4,0-0.8,0-1.2,0.1
					c-0.4,0.1-0.8,0.2-1.2,0.4c-0.4,0.2-0.7,0.4-1,0.7c-0.3,0.3-0.6,0.6-0.8,1c-0.2-0.6-0.6-1.2-1.2-1.6c-0.6-0.4-1.3-0.6-2-0.6
					c-0.7,0-1.3,0.2-1.9,0.4c-0.3,0.1-0.5,0.3-0.8,0.5c-0.2,0.2-0.5,0.4-0.7,0.6l-0.2-0.7c-0.1-0.4-0.5-0.7-1-0.7h-2.3v13
					L125.3,19.1z M118.6,13.3c0.1,0,0.3,0,0.4-0.1c0.1,0,0.2-0.1,0.3-0.2c0.1-0.1,0.1-0.3,0.1-0.4c0-0.2,0-0.5,0-0.7
					c0-0.9-0.1-1.7-0.4-2.5c-0.3-0.7-0.7-1.3-1.2-1.9c-0.5-0.5-1.1-0.9-1.8-1.2c-1.6-0.6-3.4-0.5-5,0.1c-1.5,0.6-2.7,1.9-3.3,3.5
					c-0.3,0.8-0.5,1.6-0.4,2.5c0,1,0.2,2,0.5,3c0.3,0.8,0.8,1.6,1.4,2.2c0.6,0.6,1.3,1,2.1,1.3c0.8,0.3,1.7,0.5,2.6,0.5
					c0.5,0,0.9,0,1.4-0.1c0.5-0.1,1-0.2,1.5-0.3c0.5-0.2,1-0.4,1.4-0.7c0.5-0.3,0.9-0.7,1.3-1.1l-1.1-1.4c-0.2-0.2-0.4-0.3-0.7-0.3
					c-0.2,0-0.5,0.1-0.7,0.2l-0.7,0.4c-0.3,0.1-0.6,0.3-0.9,0.4c-0.4,0.1-0.8,0.2-1.2,0.2c-0.8,0-1.5-0.2-2.1-0.7
					c-0.6-0.6-1-1.5-1-2.4L118.6,13.3z M111.1,11c0.1-0.7,0.4-1.3,0.8-1.8c0.5-0.4,1.1-0.7,1.7-0.6c0.4,0,0.7,0.1,1.1,0.2
					c0.3,0.1,0.5,0.3,0.7,0.6c0.2,0.2,0.3,0.5,0.4,0.8c0.1,0.3,0.1,0.6,0.1,0.9H111.1z M105.3,1.6c-0.2-0.6-0.7-1-1.3-1.2
					c-0.3-0.1-0.6-0.2-0.9-0.2c-0.3,0-0.6,0.1-0.9,0.2c-0.3,0.1-0.5,0.3-0.7,0.5c-0.2,0.2-0.4,0.5-0.5,0.7c-0.1,0.3-0.2,0.6-0.2,0.9
					c0,0.3,0.1,0.6,0.2,0.9c0.1,0.3,0.3,0.5,0.5,0.7c0.2,0.2,0.5,0.4,0.7,0.5c0.3,0.1,0.6,0.2,0.9,0.2c0.3,0,0.6-0.1,0.9-0.2
					c0.3-0.1,0.5-0.3,0.8-0.5c0.2-0.2,0.4-0.4,0.5-0.7c0.1-0.3,0.2-0.6,0.2-0.9C105.5,2.2,105.4,1.9,105.3,1.6 M101.2,19.1h3.9v-13
					h-3.9V19.1z M90.1,6.8c-0.1-0.4-0.5-0.7-1-0.7h-2.4v17.2h3.9v-5c0.4,0.3,0.8,0.6,1.2,0.8c0.5,0.2,1.1,0.3,1.7,0.3
					c0.8,0,1.6-0.2,2.3-0.5c0.7-0.3,1.3-0.8,1.8-1.4c0.5-0.6,0.9-1.4,1.1-2.2c0.3-0.9,0.4-1.8,0.4-2.7c0-1-0.1-1.9-0.4-2.8
					c-0.2-0.8-0.5-1.5-1-2.1c-0.4-0.5-0.9-1-1.5-1.3C95.7,6,95,5.8,94.4,5.9c-0.8,0-1.6,0.2-2.3,0.5c-0.7,0.3-1.2,0.8-1.7,1.3
					L90.1,6.8z M90.6,10.1c0.3-0.4,0.6-0.7,1-0.9C92,8.9,92.5,8.8,93,8.8c0.3,0,0.6,0.1,0.8,0.2c0.3,0.1,0.5,0.4,0.7,0.6
					c0.2,0.3,0.4,0.7,0.5,1.1c0.1,0.6,0.2,1.2,0.2,1.7c0,0.6-0.1,1.2-0.2,1.8c-0.1,0.4-0.3,0.9-0.5,1.2c-0.2,0.3-0.5,0.5-0.8,0.7
					c-0.3,0.2-0.7,0.2-1,0.2c-0.4,0-0.7-0.1-1.1-0.2c-0.4-0.1-0.7-0.4-1-0.7L90.6,10.1z"/>
			</g>
		</g>
		<g class="st2">
			<path class="st0" d="M141.1,29.1c0,1.2-0.3,2.1-0.9,2.7s-1.4,1-2.5,1s-1.9-0.3-2.5-1s-0.9-1.5-0.9-2.7s0.3-2.1,0.9-2.7
				c0.6-0.6,1.4-0.9,2.5-0.9c1.1,0,1.9,0.3,2.5,0.9S141.1,27.9,141.1,29.1z M135.9,29.1c0,0.8,0.2,1.4,0.5,1.8s0.8,0.6,1.4,0.6
				c1.2,0,1.8-0.8,1.8-2.4c0-1.6-0.6-2.4-1.8-2.4c-0.6,0-1.1,0.2-1.4,0.6C136,27.7,135.9,28.3,135.9,29.1z"/>
			<path class="st0" d="M147.5,27.7c0,0.8-0.2,1.4-0.7,1.8c-0.5,0.4-1.2,0.6-2,0.6h-0.6v2.5h-1.5v-7.1h2.3c0.9,0,1.5,0.2,2,0.6
				C147.3,26.4,147.5,27,147.5,27.7z M144.1,28.9h0.5c0.5,0,0.8-0.1,1-0.3c0.2-0.2,0.3-0.5,0.3-0.8c0-0.4-0.1-0.6-0.3-0.8
				c-0.2-0.2-0.5-0.3-0.9-0.3h-0.7V28.9z"/>
			<path class="st0" d="M153,32.6h-4.1v-7.1h4.1v1.2h-2.6v1.6h2.4v1.2h-2.4v1.8h2.6V32.6z"/>
			<path class="st0" d="M156,29.9v2.7h-1.5v-7.1h2.1c1,0,1.7,0.2,2.2,0.5c0.5,0.4,0.7,0.9,0.7,1.6c0,0.4-0.1,0.8-0.3,1.1
				c-0.2,0.3-0.6,0.6-1,0.8c1.1,1.6,1.8,2.6,2.1,3.1h-1.7l-1.7-2.7H156z M156,28.7h0.5c0.5,0,0.8-0.1,1.1-0.2
				c0.2-0.2,0.3-0.4,0.3-0.8c0-0.3-0.1-0.6-0.3-0.7c-0.2-0.1-0.6-0.2-1.1-0.2H156V28.7z"/>
			<path class="st0" d="M165.4,32.6l-0.5-1.7h-2.6l-0.5,1.7h-1.6l2.5-7.2h1.9l2.5,7.2H165.4z M164.5,29.7c-0.5-1.5-0.7-2.4-0.8-2.6
				c-0.1-0.2-0.1-0.4-0.1-0.5c-0.1,0.4-0.4,1.4-0.9,3.1H164.5z"/>
			<path class="st0" d="M170.7,32.6h-1.5v-5.9h-1.9v-1.3h5.4v1.3h-1.9V32.6z"/>
			<path class="st0" d="M180.2,29.1c0,1.2-0.3,2.1-0.9,2.7s-1.4,1-2.5,1s-1.9-0.3-2.5-1s-0.9-1.5-0.9-2.7s0.3-2.1,0.9-2.7
				c0.6-0.6,1.4-0.9,2.5-0.9c1.1,0,1.9,0.3,2.5,0.9S180.2,27.9,180.2,29.1z M175,29.1c0,0.8,0.2,1.4,0.5,1.8s0.8,0.6,1.4,0.6
				c1.2,0,1.8-0.8,1.8-2.4c0-1.6-0.6-2.4-1.8-2.4c-0.6,0-1.1,0.2-1.4,0.6C175.2,27.7,175,28.3,175,29.1z"/>
			<path class="st0" d="M183.2,29.9v2.7h-1.5v-7.1h2.1c1,0,1.7,0.2,2.2,0.5c0.5,0.4,0.7,0.9,0.7,1.6c0,0.4-0.1,0.8-0.3,1.1
				c-0.2,0.3-0.6,0.6-1,0.8c1.1,1.6,1.8,2.6,2.1,3.1h-1.7l-1.7-2.7H183.2z M183.2,28.7h0.5c0.5,0,0.8-0.1,1.1-0.2
				c0.2-0.2,0.3-0.4,0.3-0.8c0-0.3-0.1-0.6-0.3-0.7c-0.2-0.1-0.6-0.2-1.1-0.2h-0.5V28.7z"/>
			<path class="st0" d="M192.4,32.6h-4.1v-7.1h4.1v1.2h-2.6v1.6h2.4v1.2h-2.4v1.8h2.6V32.6z"/>
		</g>
		<line class="st3" x1="0" y1="30" x2="127.4" y2="30"/>
	</g>
</g>
</svg>
