<svg xmlns="http://www.w3.org/2000/svg" xmlns:xlink="http://www.w3.org/1999/xlink" width="699.614" height="717.999" viewBox="0 0 699.614 717.999">
  <defs>
    <linearGradient id="linear-gradient" x1="0.395" y1="0.764" x2="0.596" y2="0.545" gradientUnits="objectBoundingBox">
      <stop offset="0" stop-color="#d0e5ff"/>
      <stop offset="1" stop-color="#6ec6ff"/>
    </linearGradient>
  </defs>
  <path id="Tracciato_2151" data-name="Tracciato 2151" d="M-419.483-290.705c117.617-12.463,171.446-193.684,250.193-221.23,11.971-4.188,24.189-8.927,32.876-18.163,8-8.509,12.306-20.113,15.685-31.7,27.267-93.526,3.972-201.291-44.676-291.991-20.118-37.508-45.045-73.51-78.172-99.581-67.515-53.135-156-56.446-236.953-54.035-51.167,1.524-103.436,4.652-148.874,25.713-13.32,6.174-26.64,14.686-32.1,28.761-9.417,24.268,7.986,52.614,25.607,73.983s37.956,45.713,35.248,72.251c-3.1,30.386-34.161,45.413-61.294,55.779-41.623,15.9-83.763,32.718-117.427,61.749-15.472,13.343-29.68,31.108-29.386,52.866.142,10.541,3.747,21.069,8.659,30.725,28.087,55.219,91.4,78.206,145.628,104.889,17.04,8.384,34.163,17.967,47.052,32.529C-570.032-425.92-537.1-278.243-419.483-290.705Z" transform="translate(808.762 1007.961)" opacity="0.629" fill="url(#linear-gradient)"/>
</svg>
